# xmcd
# 
# Track frame offsets:
#     150
#     23069
#     34436
#     44589
#     68238
#     90546
#     92484
#     115090
#     132181
#     152501
#     208360
#     231154
#     241124
#     297129
# 
# Disc length: 4260
# 
# Revision: 20
# Processed by: cddbd v1.5.2PL0 Copyright (c) Steve Scherf et al.
# Submitted via: fre:ac v1.0.17
# 
DISCID=bc10a20e
DTITLE=Various Artist - マクロスF　ボーカルコレクションアルバム　娘たま♀DISK2
DYEAR=2008
DGENRE=Anime
TTITLE0=シェリル・ノーム starring May'n、ランカ・リー＝中島愛 - ライオン
TTITLE1=ランカ・リー＝中島愛、シェリル・ノーム starring May'n - ダイアモンド クレバス 50／50
TTITLE2=シェリル・ノーム starring May'n - シェリルのアイモ
TTITLE3=シェリル・ノーム starring May'n - 妖精
TTITLE4=シェリル・ノーム starring May'n - ノーザンクロス
TTITLE5=ランカ・リー＝中島愛 - ブレラと子ランカのアイモ
TTITLE6=ランカ・リー＝中島愛 - アナタノオト
TTITLE7=ランカ・リー＝中島愛 - 蒼のエーテル
TTITLE8=ランカ・リー＝中島愛 - 愛・おぼえていますか ～bless the little queen～
TTITLE9=シェリル・ノーム starring May'n、ランカ・リー＝中島愛 - 娘々スペシャルサービスメドレー (特盛り)
TTITLE10=ランカ・リー＝中島愛、シェリル・ノーム starring May'n - トライアングラー (fight on stage)
TTITLE11=坂本真綾 (蘭雪)、ランカ・リー＝中島愛 - 母と子ランカのアイモ
TTITLE12=シェリル・ノーム starring May'n、ランカ・リー＝中島愛 - 娘々スペシャルサービスメドレー (特盛り) (without vocals)
TTITLE13=ランカ・リー＝中島愛 - アナタノオト (without vocals)
EXTD=YEAR: 2008
EXTT0=
EXTT1=
EXTT2=
EXTT3=
EXTT4=
EXTT5=
EXTT6=
EXTT7=
EXTT8=
EXTT9=
EXTT10=
EXTT11=
EXTT12=
EXTT13=
PLAYORDER=
